<svg width="27" height="26" viewBox="0 0 27 26" fill="none" xmlns="http://www.w3.org/2000/svg">
<g id="message-2">
<g id="Path">
<path d="M13.8 21.6667L10.55 18.4167H8.38333C6.58841 18.4167 5.13333 16.9616 5.13333 15.1667V8.66666C5.13333 6.87173 6.58841 5.41666 8.38333 5.41666H19.2167C21.0116 5.41666 22.4667 6.87173 22.4667 8.66666V15.1667C22.4667 16.9616 21.0116 18.4167 19.2167 18.4167H17.05L13.8 21.6667" stroke="#4B465C" stroke-width="1.75" stroke-linecap="round" stroke-linejoin="round"/>
<path d="M13.8 21.6667L10.55 18.4167H8.38333C6.58841 18.4167 5.13333 16.9616 5.13333 15.1667V8.66666C5.13333 6.87173 6.58841 5.41666 8.38333 5.41666H19.2167C21.0116 5.41666 22.4667 6.87173 22.4667 8.66666V15.1667C22.4667 16.9616 21.0116 18.4167 19.2167 18.4167H17.05L13.8 21.6667" stroke="white" stroke-opacity="0.5" stroke-width="1.75" stroke-linecap="round" stroke-linejoin="round"/>
</g>
<g id="Path_2">
<path d="M9.46664 9.75001H18.1333" stroke="#4B465C" stroke-width="1.75" stroke-linecap="round" stroke-linejoin="round"/>
<path d="M9.46664 9.75001H18.1333" stroke="white" stroke-opacity="0.5" stroke-width="1.75" stroke-linecap="round" stroke-linejoin="round"/>
</g>
<g id="Path_3">
<path d="M9.46664 14.0833H15.9666" stroke="#4B465C" stroke-width="1.75" stroke-linecap="round" stroke-linejoin="round"/>
<path d="M9.46664 14.0833H15.9666" stroke="white" stroke-opacity="0.5" stroke-width="1.75" stroke-linecap="round" stroke-linejoin="round"/>
</g>
</g>
</svg>
